<svg width="100" height="100" xmlns="http://www.w3.org/2000/svg">

 <g>
  <title>background</title>
  <rect fill="#222222" id="canvas_background" height="402" width="402" y="-1" x="-1"/>
 </g>
 <g>
  <title>Layer 1</title>
  <path transform="rotate(-45 49.749999999999986,51.299999237060554) " fill="#fbc011" id="svg_1" d="m97,51.3c0,-9.9 -8,-17.9 -17.9,-17.9l-58.7,0c-9.9,0 -17.9,8 -17.9,17.9c0,9.9 8,17.9 17.9,17.9l58.6,0c10,0 18,-8 18,-17.9zm-56.9,-7.7l-19.6,0c-4.3,0 -7.7,3.5 -7.7,7.7c0,1.4 -1.1,2.5 -2.5,2.5c-1.4,0 -2.5,-1.1 -2.5,-2.5c0,-7 5.7,-12.7 12.7,-12.7l19.6,0c1.4,0 2.5,1.1 2.5,2.5c-0.1,1.4 -1.2,2.5 -2.5,2.5zm39,20.4l-29.3,0l0,-25.3l29.3,0c7,0 12.7,5.7 12.7,12.7c-0.1,6.9 -5.7,12.6 -12.7,12.6z"/>
 </g>
</svg>