<?xml version="1.0" standalone="no"?>
<!DOCTYPE svg PUBLIC "-//W3C//DTD SVG 20010904//EN"
 "http://www.w3.org/TR/2001/REC-SVG-20010904/DTD/svg10.dtd">
<svg version="1.0" xmlns="http://www.w3.org/2000/svg"
 width="700.000000pt" height="700.000000pt" viewBox="0 0 700.000000 700.000000"
 preserveAspectRatio="xMidYMid meet">
<metadata>
Created by potrace 1.11, written by Peter Selinger 2001-2013
</metadata>
<g transform="translate(0.000000,700.000000) scale(0.100000,-0.100000)"
fill="#000000" stroke="none">
<path d="M4817 6108 c-213 -18 -435 -103 -621 -236 -55 -40 -521 -499 -1565
-1543 -817 -817 -1507 -1510 -1534 -1539 -55 -60 -137 -173 -137 -188 0 -5 -6
-15 -14 -21 -35 -29 -140 -315 -152 -416 -2 -22 -6 -56 -9 -75 -8 -57 -8 -190
-1 -264 21 -211 109 -436 240 -616 45 -62 194 -213 244 -248 192 -135 341
-201 537 -237 100 -19 282 -26 360 -13 27 4 66 10 86 12 144 18 375 117 521
224 106 78 3095 3068 3170 3172 151 207 236 455 243 705 2 98 -12 256 -30 325
-31 118 -74 226 -136 340 -47 86 -151 217 -219 276 -14 12 -41 36 -60 54 -108
98 -355 226 -492 256 -159 34 -291 44 -431 32z m278 -378 c75 -14 86 -17 140
-35 110 -37 238 -118 329 -208 307 -305 343 -809 82 -1157 -43 -58 -1519
-1540 -1533 -1540 -4 0 -288 280 -630 623 l-623 622 758 756 c780 779 811 808
953 872 166 76 352 100 524 67z m-2528 -2132 c89 -39 132 -166 82 -247 -12
-19 -249 -262 -527 -540 -291 -292 -520 -529 -539 -559 -70 -109 -97 -240 -79
-379 7 -51 43 -152 62 -174 8 -8 14 -20 14 -25 0 -5 25 -38 55 -73 74 -88 87
-154 44 -231 -59 -104 -190 -117 -281 -26 -125 124 -215 309 -243 496 -12 76
-7 212 10 295 27 130 76 242 153 350 58 82 1071 1092 1112 1109 43 18 100 20
137 4z"/>
</g>
</svg>
